<?xml version="1.0" encoding="UTF-8" standalone="no"?>
<!-- Created with Inkscape (http://www.inkscape.org/) -->

<svg
   xmlns:dc="http://purl.org/dc/elements/1.1/"
   xmlns:cc="http://creativecommons.org/ns#"
   xmlns:rdf="http://www.w3.org/1999/02/22-rdf-syntax-ns#"
   xmlns:svg="http://www.w3.org/2000/svg"
   xmlns="http://www.w3.org/2000/svg"
   xmlns:sodipodi="http://sodipodi.sourceforge.net/DTD/sodipodi-0.dtd"
   xmlns:inkscape="http://www.inkscape.org/namespaces/inkscape"
   version="1.1"
   id="svg3733"
   width="448"
   height="78.666664"
   viewBox="0 0 448 78.666664"
   sodipodi:docname="fleche_menu1-gauche.svg"
   inkscape:version="0.92.4 (5da689c313, 2019-01-14)">
  <metadata
     id="metadata3739">
    <rdf:RDF>
      <cc:Work
         rdf:about="">
        <dc:format>image/svg+xml</dc:format>
        <dc:type
           rdf:resource="http://purl.org/dc/dcmitype/StillImage" />
        <dc:title></dc:title>
      </cc:Work>
    </rdf:RDF>
  </metadata>
  <defs
     id="defs3737" />
  <sodipodi:namedview
     pagecolor="#ffffff"
     bordercolor="#666666"
     borderopacity="1"
     objecttolerance="10"
     gridtolerance="10"
     guidetolerance="10"
     inkscape:pageopacity="0"
     inkscape:pageshadow="2"
     inkscape:window-width="1908"
     inkscape:window-height="927"
     id="namedview3735"
     showgrid="false"
     inkscape:zoom="3.9313016"
     inkscape:cx="433.60175"
     inkscape:cy="48.158442"
     inkscape:window-x="0"
     inkscape:window-y="0"
     inkscape:window-maximized="0"
     inkscape:current-layer="svg3733" />
  <path
     style="fill:#c67412;stroke-width:1.33333325"
     d="m 366.74497,46.674594 c -32.29704,-2.309123 -170.34341,-6.551093 -215.33333,-6.616889 -16.8547,-0.02465 -24.66397,-0.469628 -23.33333,-1.329549 1.1,-0.710875 12.8,-1.303607 26,-1.317183 45.42554,-0.04672 172.78589,-4.038695 217.48568,-6.816861 21.65726,-1.346036 23.28246,-1.275093 31.9222,1.393448 5.00674,1.546428 14.6882,3.517089 21.51432,4.379246 6.82612,0.862158 12.41113,1.917275 12.41113,2.344706 0,0.427429 -5.80988,1.556866 -12.91083,2.50986 -7.10096,0.952992 -16.55096,2.874138 -21,4.269213 -8.47828,2.658514 -13.75494,2.82849 -36.75584,1.184009 z"
     id="path3745"
     inkscape:connector-curvature="0" />
</svg>
